
<svg width="1024" height="1024" xmlns="http://www.w3.org/2000/svg">
 <g transform="scale(1, -1) translate(0, -900)">
  <title>Layer 1</title>
  
<path d="M 939 93 Q 924 121 905 211 Q 905 229 897 234 Q 890 238 886 218 Q 856 122 836 93 Q 824 77 788 67 Q 704 46 630 76 Q 602 89 593 108 Q 572 151 572 247 L 575 293 Q 579 369 593 456 Q 599 477 585 487 Q 570 502 544 511 Q 531 515 521 510 Q 514 506 519 486 Q 535 443 532 401 Q 528 319 527 255 L 527 217 Q 528 126 540 86 Q 546 61 569 38 Q 654 -29 817 -2 Q 833 2 850 6 Q 892 19 932 48 Q 953 64 939 93 Z"></path>

  </g>
</svg>
